<!DOCTYPE svg PUBLIC "-//W3C//DTD SVG 20010904//EN" "http://www.w3.org/TR/2001/REC-SVG-20010904/DTD/svg10.dtd">
<svg version="1.0" xmlns="http://www.w3.org/2000/svg" width="1600px" height="1600px" viewBox="0 0 16000 16000" preserveAspectRatio="xMidYMid meet">
<g id="layer101" fill="#ffffff" stroke="none">
 <path d="M8265 12314 c-186 -16 -626 -80 -675 -100 -8 -3 -64 -19 -125 -34 -177 -45 -409 -122 -502 -166 -18 -8 -50 -21 -70 -28 -57 -21 -213 -98 -213 -105 0 -4 48 -13 108 -19 106 -13 146 -21 312 -62 90 -22 328 -98 345 -110 6 -3 33 -15 60 -25 72 -26 288 -131 370 -178 79 -46 243 -157 292 -196 18 -14 49 -39 70 -56 104 -83 325 -306 376 -381 12 -17 44 -60 70 -95 27 -35 57 -80 68 -99 11 -19 35 -60 54 -90 125 -198 271 -575 324 -835 55 -272 71 -409 71 -615 0 -318 -70 -686 -186 -985 -39 -100 -161 -357 -173 -365 -5 -3 -20 -27 -35 -55 -14 -27 -41 -70 -60 -95 l-33 -45 -189 2 c-104 0 -245 8 -314 17 -146 18 -461 72 -505 86 -16 6 -66 19 -110 29 -99 24 -323 88 -350 100 -11 5 -51 19 -90 32 -38 12 -74 25 -80 29 -5 3 -32 15 -60 24 -105 38 -388 171 -520 244 -66 37 -197 115 -210 124 -5 5 -46 32 -90 61 -88 57 -118 79 -250 182 -114 89 -125 98 -203 170 -197 180 -375 376 -521 570 -29 39 -58 77 -64 85 -37 48 -180 271 -229 358 -59 104 -198 375 -198 387 0 2 -11 28 -24 57 -14 30 -34 78 -46 108 -11 30 -25 64 -30 75 -64 134 -182 522 -254 835 -44 191 -110 579 -100 589 12 12 556 -121 769 -188 132 -42 490 -163 520 -176 17 -8 80 -34 140 -58 199 -81 444 -206 548 -279 32 -23 47 -19 20 4 -10 8 -76 50 -148 93 -71 42 -146 88 -165 100 -19 13 -55 34 -80 48 -25 14 -67 39 -95 55 -27 16 -95 54 -150 85 -55 31 -107 61 -115 66 -75 49 -628 332 -775 398 -106 47 -257 110 -285 118 -14 4 -29 11 -35 15 -36 27 -489 149 -503 135 -5 -5 25 -299 43 -410 21 -133 80 -423 114 -560 45 -183 140 -509 161 -550 5 -11 19 -47 29 -80 26 -82 86 -239 116 -303 14 -29 25 -55 25 -57 0 -5 43 -100 101 -221 38 -80 148 -287 192 -359 59 -98 68 -112 207 -319 24 -35 164 -219 180 -237 8 -9 35 -40 60 -70 49 -60 332 -344 396 -399 106 -90 148 -127 169 -145 116 -104 384 -307 550 -416 183 -121 219 -142 450 -270 134 -74 464 -223 630 -284 72 -26 144 -54 160 -61 31 -13 142 -47 295 -90 47 -13 108 -31 135 -39 112 -34 504 -116 760 -160 397 -68 482 -85 618 -120 76 -20 146 -40 155 -45 10 -5 49 -19 87 -31 39 -13 75 -26 80 -30 6 -4 39 -18 75 -32 36 -13 122 -54 192 -90 475 -249 739 -552 794 -910 19 -124 13 -431 -10 -546 -38 -183 -119 -378 -220 -529 -114 -170 -318 -328 -485 -378 -164 -48 -243 -58 -441 -58 -183 0 -205 2 -350 33 -85 18 -168 39 -185 46 -16 7 -57 23 -90 35 -82 29 -253 120 -334 178 -238 169 -450 440 -551 705 -12 28 -25 61 -30 72 -32 65 -90 290 -111 430 -7 47 -15 85 -19 85 -3 0 -14 -60 -23 -132 -20 -150 -81 -397 -127 -508 -36 -86 -101 -223 -111 -230 -3 -3 -12 -16 -19 -29 -36 -70 -177 -218 -235 -248 -16 -8 -37 -21 -45 -29 -9 -7 -58 -27 -109 -44 -72 -23 -114 -31 -177 -31 -46 -1 -84 -4 -84 -8 0 -12 62 -153 81 -185 10 -17 25 -43 34 -58 43 -77 121 -174 223 -278 102 -105 137 -136 236 -207 17 -12 36 -26 42 -32 6 -5 49 -32 95 -60 46 -29 91 -56 99 -62 8 -5 31 -17 50 -25 19 -9 60 -28 90 -43 364 -179 900 -273 1370 -241 171 11 280 24 340 40 19 5 80 18 135 30 55 12 109 25 120 30 11 5 53 19 94 31 96 27 210 73 347 140 99 48 272 145 284 159 3 3 23 17 45 30 22 13 42 27 45 30 3 3 21 17 40 30 141 96 379 329 495 485 16 22 33 42 36 45 11 9 136 203 167 260 116 211 193 392 273 640 62 191 226 848 280 1120 14 69 59 372 74 495 29 237 39 452 39 795 1 555 -29 837 -153 1460 -49 251 -135 601 -160 655 -5 11 -21 58 -36 105 -14 47 -33 99 -41 117 -7 17 -14 34 -14 38 0 8 -97 249 -110 273 -5 9 -35 71 -68 137 -56 114 -69 139 -130 245 -54 94 -216 331 -257 376 -5 6 -34 41 -64 77 -72 88 -267 277 -366 355 -44 34 -85 66 -90 71 -112 88 -388 243 -521 292 -32 12 -64 25 -69 30 -14 10 -192 64 -368 110 -147 39 -352 77 -557 105 -102 14 -695 27 -805 18z"/>
 <path d="M7183 5850 c-85 -18 -183 -91 -183 -138 0 -27 16 -25 85 12 32 16 58 21 125 21 101 0 159 -23 253 -100 72 -59 87 -52 57 27 -48 130 -195 208 -337 178z"/>
 <path d="M9045 5690 c-92 -19 -200 -90 -250 -165 -22 -31 -24 -40 -13 -51 11 -11 25 -7 83 21 202 100 409 81 586 -52 39 -29 77 -53 85 -53 42 0 -12 125 -84 192 -105 98 -258 138 -407 108z"/>
 </g>

</svg>
