<?xml version="1.0" standalone="no"?>
<!DOCTYPE svg PUBLIC "-//W3C//DTD SVG 20010904//EN"
 "http://www.w3.org/TR/2001/REC-SVG-20010904/DTD/svg10.dtd">
<svg version="1.0" xmlns="http://www.w3.org/2000/svg"
 width="640.000000pt" height="640.000000pt" viewBox="0 0 640.000000 640.000000"
 preserveAspectRatio="xMidYMid meet">
<metadata>
Created by potrace 1.11, written by Peter Selinger 2001-2013
</metadata>
<g transform="translate(0.000000,640.000000) scale(0.100000,-0.100000)"
fill="#000000" stroke="none">
<path d="M617 5058 c1242 -1045 2609 -2188 2615 -2186 10 4 2698 2259 2698
2264 0 2 -1218 4 -2706 4 l-2705 0 98 -82z"/>
<path d="M50 2955 l0 -1895 3150 0 3150 0 0 1876 0 1875 -87 -73 c-49 -41
-243 -204 -433 -363 -190 -158 -351 -293 -358 -300 -10 -9 -3 -25 34 -81 95
-141 154 -305 174 -486 57 -509 -257 -994 -745 -1151 -136 -44 -191 -52 -350
-51 -126 1 -165 6 -247 27 -186 49 -350 138 -488 265 l-66 60 -278 -233 -278
-233 -279 234 -279 235 -58 -55 c-88 -85 -157 -133 -277 -191 -194 -94 -383
-129 -583 -107 -317 35 -580 186 -771 442 -270 362 -280 878 -24 1254 l40 59
-66 56 c-192 165 -871 731 -875 731 -4 0 -6 -853 -6 -1895z"/>
<path d="M1392 3707 c-23 -27 -72 -144 -83 -196 -17 -85 -6 -232 23 -312 91
-247 348 -399 609 -361 93 13 218 69 284 126 35 30 38 36 25 49 -24 23 -824
692 -836 700 -7 4 -16 1 -22 -6z"/>
<path d="M4625 3365 c-231 -194 -421 -358 -423 -364 -5 -14 89 -85 152 -115
302 -143 665 10 776 327 30 86 37 222 16 307 -17 69 -74 192 -91 196 -5 1
-199 -157 -430 -351z"/>
</g>
</svg>
